<?xml version="1.0" encoding="UTF-8" standalone="no"?>
<svg width="512" height="512" viewBox="0 0 512 512" fill="none" xmlns="http://www.w3.org/2000/svg">
  <!-- Background -->
  <rect width="512" height="512" rx="64" fill="#4F46E5"/>
  
  <!-- Praying Hands Symbol -->
  <path d="M256 120C256 120 220 160 220 200C220 240 256 280 256 320C256 360 220 400 220 400" stroke="white" stroke-width="24" stroke-linecap="round"/>
  <path d="M256 120C256 120 292 160 292 200C292 240 256 280 256 320C256 360 292 400 292 400" stroke="white" stroke-width="24" stroke-linecap="round"/>
  
  <!-- Heart Symbol -->
  <path d="M256 400C256 400 336 340 336 300C336 270 316 250 286 250C270 250 256 260 256 260C256 260 242 250 226 250C196 250 176 270 176 300C176 340 256 400 256 400Z" fill="white"/>
</svg>
