<?xml version="1.0" encoding="UTF-8" standalone="no"?>
<svg width="512" height="512" viewBox="0 0 512 512" fill="none" xmlns="http://www.w3.org/2000/svg">
  <rect width="512" height="512" rx="64" fill="#4F46E5"/>
  <path d="M256 128C256 155.614 233.614 178 206 178C178.386 178 156 155.614 156 128C156 100.386 178.386 78 206 78C233.614 78 256 100.386 256 128Z" fill="white"/>
  <path d="M356 128C356 155.614 333.614 178 306 178C278.386 178 256 155.614 256 128C256 100.386 278.386 78 306 78C333.614 78 356 100.386 356 128Z" fill="white"/>
  <path d="M206 178C206 205.614 183.614 228 156 228C128.386 228 106 205.614 106 178C106 150.386 128.386 128 156 128C183.614 128 206 150.386 206 178Z" fill="white"/>
  <path d="M406 178C406 205.614 383.614 228 356 228C328.386 228 306 205.614 306 178C306 150.386 328.386 128 356 128C383.614 128 406 150.386 406 178Z" fill="white"/>
  <path d="M256 384C256 411.614 233.614 434 206 434C178.386 434 156 411.614 156 384C156 356.386 178.386 334 206 334C233.614 334 256 356.386 256 384Z" fill="white"/>
  <path d="M356 384C356 411.614 333.614 434 306 434C278.386 434 256 411.614 256 384C256 356.386 278.386 334 306 334C333.614 334 356 356.386 356 384Z" fill="white"/>
  <path d="M206 434C206 461.614 183.614 484 156 484C128.386 484 106 461.614 106 434C106 406.386 128.386 384 156 384C183.614 384 206 406.386 206 434Z" fill="white"/>
  <path d="M406 434C406 461.614 383.614 484 356 484C328.386 484 306 461.614 306 434C306 406.386 328.386 384 356 384C383.614 384 406 406.386 406 434Z" fill="white"/>
  <rect x="156" y="178" width="200" height="156" fill="white"/>
</svg>
